<?xml version="1.0" encoding="utf-8"?>
<!-- Generator: Adobe Illustrator 16.0.0, SVG Export Plug-In . SVG Version: 6.00 Build 0)  -->
<!DOCTYPE svg PUBLIC "-//W3C//DTD SVG 1.1//EN" "http://www.w3.org/Graphics/SVG/1.1/DTD/svg11.dtd">
<svg version="1.1" id="Layer_1" xmlns="http://www.w3.org/2000/svg" xmlns:xlink="http://www.w3.org/1999/xlink" x="0px" y="0px"
	 width="1080px" height="1080px" viewBox="0 0 1080 1080" enable-background="new 0 0 1080 1080" xml:space="preserve">
<path fill-rule="evenodd" clip-rule="evenodd" d="M702.312,974.983c-107.785,0-215.569,0-323.359,0
	c-0.821-1.075-1.648-2.182-2.599-3.132c-46.038-46.071-92.075-92.114-138.118-138.185c-0.886-0.858-1.777-1.776-2.787-2.754
	c0-1.427,0-2.944,0-4.402c0-164.21,0-328.427,0-492.606c0-1.171,0.064-2.312,0-3.516c0-0.573-0.125-1.205-0.254-1.935
	c-1.329-0.027-2.468-0.092-3.609-0.092c-21.597,0-43.19,0-64.782,0c-1.27,0-2.54-0.064-3.804-0.064c0-71.752,0-143.471,0-215.321
	c95.878,0,191.827,0,287.77,0c0.124,0.476,0.318,0.983,0.443,1.491c3.354,13.392,8.233,26.217,14.31,38.598
	c5.132,10.48,11.15,20.394,18.433,29.577c0.756,0.946,1.642,1.896,2.345,2.723c37.361,0,74.474,0,111.522,0
	c0.503-0.573,0.945-1.016,1.388-1.523c15.263-19.249,25.207-40.97,30.085-64.972c0.378-2,0.822-3.96,1.2-5.894
	c95.44,0,190.876,0,286.505,0c0,71.752,0,143.569,0,215.321c-1.27,0-2.533,0.064-3.803,0.064c-21.279,0-42.554,0-63.833,0
	c-1.08,0-2.279-0.254-3.483,0.346c-0.319,1.556-0.188,3.138-0.188,4.721c0,164.465,0,328.93,0,493.399
	c0,4.78,0.567,3.479-2.854,6.838c-43.19,43.218-86.316,86.414-129.507,129.572c-3.106,3.134-6.271,6.299-9.438,9.433
	C703.262,973.336,702.376,973.908,702.312,974.983z M630.182,811.979c0-0.67-0.064-1.173-0.13-1.713
	c-0.507-6.742-1.01-13.521-1.583-20.231c-0.442-5.731-0.886-11.404-1.389-17.103c-0.507-6.651-1.08-13.295-1.653-19.912
	c-0.502-6.24-0.949-12.448-1.453-18.719c-0.566-7.029-1.204-14.091-1.712-21.184c-0.508-5.984-1.01-12.029-1.518-18.016
	c-0.567-6.774-1.075-13.554-1.647-20.264c-0.508-6.207-1.015-12.414-1.52-18.654c-0.507-6.773-1.139-13.521-1.711-20.263
	c-0.508-6.239-0.951-12.475-1.454-18.681c-0.572-6.749-1.14-13.49-1.647-20.237c-0.572-6.234-1.016-12.441-1.523-18.647
	c-0.567-6.808-1.135-13.522-1.707-20.297c-0.507-6.207-1.015-12.447-1.518-18.653c-0.508-6.742-1.075-13.522-1.648-20.232
	c-0.508-6.271-0.95-12.446-1.523-18.68c-0.502-6.748-1.134-13.489-1.643-20.27c-0.507-6.202-1.016-12.408-1.522-18.648
	c-0.568-6.747-1.075-13.521-1.642-20.236c-0.508-6.267-1.017-12.473-1.524-18.681c-0.567-6.775-1.134-13.49-1.643-20.264
	c-0.571-6.207-1.015-12.447-1.522-18.68c-0.574-6.715-1.141-13.489-1.644-20.237c-0.507-6.239-1.015-12.44-1.523-18.648
	c-0.571-6.904-1.14-13.744-1.705-20.583c-0.509-6.142-0.952-12.225-1.461-18.368c-0.57-6.839-1.139-13.678-1.706-20.582
	c-0.508-6.078-1.016-12.22-1.458-18.33c-0.573-6.872-1.205-13.711-1.713-20.549c-0.503-6.019-0.945-12.037-1.453-18.055
	c-0.13-0.946-0.318-1.837-0.442-2.723c-1.271-0.632-2.41-0.377-3.55-0.377c-11.34,0-22.673,0-34.008,0c-13.234,0-26.47,0-39.706,0
	c-1.145,0-2.344-0.319-3.484,0.475c-0.19,1.296-0.384,2.625-0.508,4.019c-0.124,1.334-0.188,2.723-0.318,4.117
	c-0.508,6.526-1.075,13.046-1.708,19.604c-0.508,5.791-0.951,11.587-1.458,17.378c-0.508,6.337-1.075,12.668-1.642,19
	c-0.508,5.894-1.016,11.814-1.523,17.703c-0.508,6.553-1.14,13.079-1.707,19.6c-0.508,5.796-1.016,11.587-1.459,17.416
	c-0.572,6.332-1.14,12.664-1.647,18.967c-0.503,5.921-1.011,11.809-1.519,17.703c-0.572,6.553-1.14,13.105-1.707,19.632
	c-0.508,5.791-1.016,11.588-1.524,17.384c-0.508,6.423-1.075,12.884-1.647,19.28c-0.503,5.829-1.011,11.62-1.454,17.417
	c-0.572,6.521-1.204,13.046-1.712,19.599c-0.502,5.797-1.01,11.62-1.518,17.417c-0.762,8.833-1.524,17.698-2.28,26.567
	c-0.507,5.888-1.015,11.778-1.523,17.698c-0.567,6.363-1.135,12.636-1.643,18.968c-0.507,5.888-1.016,11.808-1.523,17.734
	c-0.567,6.488-1.14,13.047-1.708,19.566c-0.508,5.825-0.951,11.621-1.523,17.45c-0.507,6.299-1.075,12.631-1.642,18.968
	c-0.443,5.888-0.951,11.808-1.458,17.729c-0.573,6.521-1.14,13.047-1.707,19.6c-0.508,5.797-1.016,11.593-1.523,17.352
	c-0.508,6.364-1.075,12.701-1.583,19c-0.568,5.921-1.075,11.814-1.583,17.735c-0.508,6.521-1.14,13.073-1.647,19.599
	c-0.502,5.765-1.011,11.588-1.519,17.385c-0.762,8.768-1.523,17.477-2.279,26.281c-0.573,6.299-1.081,12.604-1.648,18.968
	c-0.254,3.134-0.508,6.331-0.827,9.595c29.702,21.499,59.343,43,88.855,64.469C541.963,875.367,627.08,814.571,630.182,811.979z"/>
</svg>
